
<svg version="1.0" xmlns="http://www.w3.org/2000/svg"
 width="500.000000pt" height="500.000000pt" viewBox="0 0 500.000000 500.000000"
 preserveAspectRatio="xMidYMid meet">
<metadata>
Created by potrace 1.16, written by Peter Selinger 2001-2019
</metadata>
<g transform="translate(0.000000,500.000000) scale(0.100000,-0.100000)"
fill="#000000" stroke="none">
<path d="M1630 3270 l0 -210 140 0 140 0 0 40 0 40 -95 0 -95 0 0 170 0 170
-45 0 -45 0 0 -210z"/>
<path d="M1970 3270 l0 -210 149 0 c146 0 149 0 155 23 15 57 15 57 -104 57
l-110 0 0 50 0 50 95 0 95 0 0 40 0 40 -95 0 -95 0 0 45 0 45 105 0 105 0 0
35 0 35 -150 0 -150 0 0 -210z"/>
<path d="M2305 3463 c9 -21 47 -123 107 -283 l43 -115 44 0 44 0 44 115 c24
63 52 140 63 170 10 30 26 72 34 93 l16 37 -48 0 -49 0 -27 -77 c-15 -43 -36
-106 -47 -140 -11 -35 -24 -63 -29 -63 -4 0 -14 17 -20 38 -6 20 -27 83 -47
140 l-36 102 -49 0 c-44 0 -49 -2 -43 -17z"/>
<path d="M2750 3270 l0 -211 148 3 147 3 3 38 3 37 -105 0 -106 0 0 50 0 50
95 0 95 0 0 40 0 40 -95 0 -95 0 0 45 0 45 100 0 100 0 0 35 0 35 -145 0 -145
0 0 -210z"/>
<path d="M3110 3270 l0 -211 143 3 142 3 3 38 3 37 -100 0 -101 0 0 170 0 170
-45 0 -45 0 0 -210z"/>
<path d="M2405 2874 c-175 -42 -243 -83 -328 -196 -48 -65 -97 -182 -120 -284
-31 -143 -31 -473 1 -618 69 -321 275 -491 572 -473 218 13 358 104 451 294
65 133 83 237 83 493 0 183 -4 230 -22 314 -50 232 -168 383 -348 447 -58 20
-240 35 -289 23z m180 -278 c114 -48 165 -202 165 -497 0 -379 -72 -529 -256
-529 -112 0 -184 73 -220 224 -26 107 -31 423 -9 541 26 141 71 226 137 258
41 21 137 22 183 3z"/>
</g>
</svg>
