<svg version="1.2" xmlns="http://www.w3.org/2000/svg" viewBox="0 0 512 94" width="512" height="94">
	<title>L0 Wordmark-svg</title>
	<style>
		.s0 { fill: #010101 }
	</style>
	<g id="Layer">
		<g id="Layer">
			<g id="Layer">
				<path id="Layer" class="s0" d="m13 12.7h5.9v62.1h31.1v5.6h-37z"/>
				<path id="Layer" class="s0" d="m60.1 12.7h35.4v5.6h-29.5v25.4h25.2v5.5h-25.2v25.6h30.4v5.6h-36.3z"/>
				<path id="Layer" class="s0" d="m103.6 12.7h6.4l23.7 59.8 23.6-59.8h6.4l-27.2 67.7h-5.7z"/>
				<path id="Layer" class="s0" d="m172.4 12.7h35.4v5.6h-29.5v25.4h25.2v5.5h-25.2v25.6h30.4v5.6h-36.3v-67.7z"/>
				<path id="Layer" class="s0" d="m219.2 12.7h6v62.1h31.1v5.6h-37.1z"/>
			</g>
		</g>
		<path id="Layer" class="s0" d="m293.8 28.1h-27.8v-15.4h53.5l-28.9 52.4h27.9v15.3h-53.6z"/>
		<path id="Layer" class="s0" d="m325.1 12.7h39.9v15.4h-23.1v10.7h19.2v15.1h-19.2v11.2h23.9v15.3h-40.7c0 0 0-67.7 0-67.7z"/>
		<path id="Layer" fill-rule="evenodd" class="s0" d="m396.2 59.2h-6.6v21.2h-16.7v-67.7h25.2c14.5 0 24.7 9.1 24.7 23.8 0 9.3-4.2 16.1-11.2 19.7l15.2 24.3h-17.8zm0.3-14.3c5.2 0 9.3-1.8 9.3-8.4 0-6.6-4.1-8.4-9.3-8.4h-6.9v16.8z"/>
		<path id="Layer" fill-rule="evenodd" class="s0" d="m498 46.8c0 20.7-15.9 34.8-35.2 34.8-19.4 0-35.3-14.1-35.3-34.8 0-20.7 15.9-34.8 35.3-34.8 19.3 0 35.2 14.1 35.2 34.8zm-31.9 23.7c-4.8-2.4-8.2-7.3-8.2-13.1v-21.2c0-5.8 3.4-10.7 8.2-13.1q-1.1-0.2-2.3-0.2h-2.1c-7.4 0-13.3 5.9-13.3 13.3v21.2c0 7.4 5.9 13.3 13.3 13.3h2.1q1.2 0 2.3-0.2zm10.5-9.4h-14.4q-0.6 0-1.1-0.1c1.3 4.1 4.7 7.3 9 8.2 3.1-1.7 5.5-4.6 6.5-8.1zm0.5-24.9c0-5.1-2.8-9.5-7-11.7-4.2 0.9-7.7 4-8.9 8.1q0.4-0.1 1-0.1h1.1c2.4 0 4.2 1.8 4.2 4.2v14.9h5.4c2.3 0 4.2-1.9 4.2-4.2z"/>
	</g>
</svg>
