<svg width="95" height="95" viewBox="0 0 95 95" fill="none" xmlns="http://www.w3.org/2000/svg">
<g clip-path="url(#clip0_182_11749)">
<path d="M14.1087 16.8501H48.5429C50.0758 16.8501 51.3188 15.6071 51.3188 14.0734C51.3188 12.5398 50.0758 11.2967 48.5429 11.2967H14.1087C12.5751 11.2967 11.332 12.5398 11.332 14.0734C11.332 15.6071 12.5751 16.8501 14.1087 16.8501Z" fill="#21978B"/>
<path d="M14.1087 27.9567H48.5429C50.0758 27.9567 51.3188 26.7137 51.3188 25.1801C51.3188 23.6464 50.0758 22.4034 48.5429 22.4034H14.1087C12.5751 22.4034 11.332 23.6464 11.332 25.1801C11.332 26.7137 12.5751 27.9567 14.1087 27.9567Z" fill="#21978B"/>
<path d="M32.6199 33.5101H14.1087C12.5751 33.5101 11.332 34.7531 11.332 36.2868C11.332 37.8197 12.5751 39.0635 14.1087 39.0635H32.6199C34.1528 39.0635 35.3959 37.8197 35.3959 36.2868C35.3959 34.7531 34.1528 33.5101 32.6199 33.5101Z" fill="#21978B"/>
<path d="M92.2231 33.5101H62.938V2.96236C62.938 1.4287 61.6942 0.185684 60.1613 0.185684H2.77667C1.24302 0.185684 0 1.4287 0 2.96236V47.6696C0 49.2033 1.24302 50.4463 2.77667 50.4463H9.25558V62.2648C9.25558 63.4222 9.97385 64.458 11.0567 64.8646C11.3749 64.9842 11.7047 65.0414 12.0315 65.0414C12.8179 65.0414 13.5862 64.7073 14.124 64.0912L26.0381 50.4463H40.9485V75.7393C40.9485 77.273 42.1923 78.516 43.7252 78.516H68.8624L80.7729 93.8867C81.3092 94.5788 82.1261 94.963 82.9683 94.963C83.2683 94.963 83.5713 94.9137 83.8663 94.8129C84.9897 94.4288 85.7442 93.3728 85.7442 92.1856V78.516H92.2231C93.7568 78.516 94.9998 77.273 94.9998 75.7393V36.2868C94.9998 34.7531 93.7568 33.5101 92.2231 33.5101V33.5101ZM24.777 44.893C23.9746 44.893 23.2129 45.2394 22.6852 45.8432L14.8089 54.8639V47.6696C14.8089 46.136 13.5659 44.893 12.0323 44.893H5.55335V5.73903H57.3846V33.5101H43.7252C42.1923 33.5101 40.9485 34.7531 40.9485 36.2868V44.893H24.777ZM89.4465 72.9627H82.9676C81.4339 72.9627 80.1909 74.2057 80.1909 75.7393V84.0694L72.4182 74.039C71.892 73.3599 71.0817 72.9627 70.2236 72.9627H46.5019V39.0635H89.4465V72.9627Z" fill="#21978B"/>
<path d="M61.7624 65.09C62.261 65.7648 63.0387 66.1772 63.8766 66.212C63.9157 66.2142 63.9549 66.2149 63.994 66.2149C64.7898 66.2149 65.5494 65.8735 66.0778 65.2734L79.7213 49.7788C80.7345 48.6278 80.6229 46.8738 79.4719 45.8598C78.321 44.8466 76.567 44.9582 75.553 46.1092L64.181 59.0242L60.9499 54.6595C60.0374 53.4267 58.2986 53.1672 57.0664 54.0797C55.8336 54.9922 55.5741 56.731 56.4866 57.9631L61.7624 65.09Z" fill="#21978B"/>
</g>
<defs>
<clipPath id="clip0_182_11749">
<rect width="95" height="95" fill="white"/>
</clipPath>
</defs>
</svg>
